<svg width="200" height="173" viewBox="0 0 200 173" fill="none" xmlns="http://www.w3.org/2000/svg">
<path d="M76.9547 1.07785C73.1534 1.76899 69.9569 4.1232 68.1426 7.60052C67.4299 8.96122 67.2571 9.1124 65.81 9.86834C63.7798 10.9267 61.6415 13.0649 60.7128 14.9223C58.4018 19.6308 58.8554 25.1167 61.8575 29.0692L62.6351 30.0843V32.4817C62.6351 35.5919 62.5055 35.7431 60.9504 34.3176C58.7474 32.3089 56.242 30.8187 53.1318 29.7172C50.648 28.81 48.769 28.4861 45.3132 28.3565L42.1167 28.2269V34.5336C42.1167 41.3154 42.2895 42.8921 43.3046 45.4191C44.5789 48.5292 47.3219 51.553 50.2808 53.1081C52.9158 54.4688 54.6437 54.8575 58.6394 55.0087C60.54 55.0735 62.2247 55.2247 62.3759 55.3543C62.5487 55.4839 62.6351 56.2614 62.6351 57.7949C62.6351 59.9979 62.6135 60.0627 61.9007 61.0562C60.0649 63.648 59.3089 65.9591 59.3089 69.0044C59.3305 72.6761 60.4536 75.6351 62.851 78.2269L64.0821 79.5876L72.6998 101.553L81.3176 123.54L100 123.475L118.683 123.432L127.322 101.488L135.961 79.5228L137.214 78.1621C138.596 76.6502 139.935 74.1232 140.41 72.1362C140.821 70.4299 140.778 67.1254 140.302 65.5703C139.827 63.9936 138.812 61.9202 137.991 60.8835C137.387 60.1275 137.365 59.9979 137.365 57.8165C137.365 56.2614 137.451 55.4839 137.646 55.3543C137.775 55.2247 139.503 55.0735 141.469 55.0087C145.335 54.8791 146.825 54.5552 149.331 53.3241C152.592 51.7042 155.313 48.7884 156.674 45.4407C157.797 42.6761 158.099 40.2355 158.099 33.9504V28.2269L154.816 28.3565C151.166 28.4861 149.331 28.81 146.652 29.7819C143.693 30.8619 140.259 32.9785 138.575 34.7496C137.581 35.7863 137.365 35.3975 137.365 32.5033C137.365 30.1059 137.365 30.0627 138.035 29.242C139.59 27.2765 140.54 24.6632 140.734 21.8122C141.08 16.8014 138.488 12.093 134.169 9.84674C132.7 9.09081 132.57 8.96122 131.858 7.55733C130.432 4.74955 127.732 2.46014 124.665 1.50981C120.151 0.105925 115.486 1.22904 111.966 4.57677L110.389 6.08865L109.028 4.70636C106.782 2.43854 103.045 0.861865 99.9569 0.861865C96.9115 0.883463 93.3262 2.41694 91.08 4.66316L89.6329 6.13184L88.3586 4.85754C85.3132 1.81219 80.9504 0.365104 76.9547 1.07785ZM81.9007 7.75171C83.3262 8.48605 84.1685 9.43638 85.1836 11.4882C86.4148 13.972 87.2787 14.5768 89.6113 14.5768C91.9871 14.5768 92.8078 14.0152 93.9741 11.553C95.486 8.39966 97.6675 6.95258 100.562 7.19016C102.916 7.36294 105.14 9.1556 105.983 11.5098C106.199 12.1362 106.717 12.9569 107.171 13.3889C108.942 15.1383 112.138 15.1167 113.737 13.3457C113.996 13.0865 114.557 12.1146 114.989 11.2074C115.875 9.32839 116.782 8.42126 118.531 7.60052C119.482 7.16856 119.935 7.10376 121.123 7.16856C122.873 7.27655 123.974 7.77331 125.227 9.02601C126.328 10.1059 126.89 11.2938 127.106 12.9137C127.279 14.2096 127.387 14.296 129.374 14.6848C131.598 15.1167 133.629 16.9526 134.363 19.1772C134.773 20.4515 134.514 23.1081 133.845 24.2312C132.721 26.1534 131.145 27.2118 128.639 27.7301L127.343 27.9893L127.084 29.458C126.631 31.877 125.27 33.648 123.132 34.6416C121.75 35.2463 119.676 35.2247 118.294 34.5768C117.063 33.972 115.248 32.0498 114.903 30.9483C114.017 28.2053 111.512 26.8662 108.92 27.7301C107.581 28.1837 106.696 29.0908 105.896 30.8835C104.644 33.6696 102.635 35.0951 100 35.0951C97.3651 35.0735 95.3564 33.6264 94.0605 30.7755C93.2182 28.918 92.5055 28.2053 91.0584 27.7301C89.7409 27.2981 88.3802 27.4493 87.1275 28.1837C86.3716 28.6372 86.0476 29.0476 85.3132 30.5595C84.3197 32.5465 82.8942 34.1016 81.4687 34.7064C80.3024 35.2031 78.0994 35.1815 76.8683 34.62C74.8813 33.7344 73.4558 31.985 73.0022 29.9115C72.8942 29.3068 72.743 28.6156 72.6783 28.3565C72.5919 27.9893 72.3543 27.8813 71.5119 27.7517C68.9849 27.4061 66.5011 25.5271 65.7884 23.3889C65.3996 22.2442 65.3348 20.3435 65.6588 19.1772C66.242 17.0822 68.4018 15.1167 70.5832 14.6848C72.5703 14.296 72.6998 14.2096 72.851 13.0649C73.2182 10.4731 74.8597 8.33487 77.2139 7.40614C78.2722 6.97417 80.7128 7.16856 81.9007 7.75171ZM50.324 35.2895C53.6502 36.3262 56.8251 38.5724 59.0713 41.4666C60.1513 42.8705 61.3392 45.1815 61.8791 46.9094C62.4623 48.7236 62.3327 48.81 59.0713 48.81C56.026 48.81 54.4925 48.4429 52.6999 47.2981C49.5897 45.3111 48.1858 42.1578 48.1642 37.2334C48.1642 34.9007 48.4018 34.6848 50.324 35.2895ZM151.512 38.4429V41.8122L150.778 43.3025C149.784 45.3111 147.991 47.1038 146.069 47.9893C144.687 48.6372 144.428 48.6804 141.469 48.7668C137.775 48.8748 137.603 48.81 138.013 47.2549C138.661 44.8791 140.194 42.2226 142.138 40.0843C144.428 37.5789 149.093 34.9223 150.972 35.0519L151.512 35.0951V38.4429ZM91.08 37.5141C92.5919 39.026 94.2333 40.0195 96.3284 40.7323C97.797 41.229 101.728 41.2938 103.348 40.8403C105.356 40.2787 107.365 39.0908 108.92 37.5141L110.41 36.0454L111.642 37.3197C115.443 41.2074 121.404 42.3521 126.112 40.1059C126.868 39.7172 127.257 39.6524 127.408 39.8035C127.754 40.1491 127.732 55.1167 127.387 55.4623C127.235 55.6135 126.825 55.7215 126.458 55.7215C125.443 55.7215 122.635 56.4774 121.447 57.0822C117.732 58.9828 115.227 62.2657 114.385 66.3694C113.737 69.458 114.082 72.0714 115.551 75.1383C116.955 78.0757 120.086 80.7755 123.067 81.661C123.564 81.8122 124.082 82.0498 124.19 82.1794C124.341 82.3737 123.24 85.4407 120.41 92.6761C118.207 98.3133 116.242 103.086 116.048 103.281C115.724 103.648 114.73 103.67 99.8705 103.67C87.4515 103.67 83.9957 103.605 83.8662 103.389C83.7798 103.259 81.8791 98.4644 79.6329 92.7841C76.3284 84.3608 75.6156 82.3737 75.8532 82.1794C76.0044 82.0282 76.6307 81.7474 77.2355 81.553C80.8208 80.3867 83.823 77.3197 85.1621 73.4752C87.7538 65.9591 83.5422 58.0973 75.8964 56.1534C74.9677 55.9159 73.931 55.7215 73.5854 55.7215C73.2182 55.7215 72.743 55.5703 72.5271 55.3543C72.1599 55.0303 72.1383 54.4904 72.1383 47.5141C72.1383 41.5098 72.2031 39.9547 72.4191 39.7603C72.6351 39.5876 73.0022 39.6524 73.8446 40.0627C77.6243 41.8986 82.5703 41.553 86.0908 39.2636C86.6739 38.8748 87.689 38.0109 88.337 37.3197C88.9849 36.6286 89.5465 36.067 89.5681 36.067C89.5897 36.067 90.2808 36.715 91.08 37.5141ZM74.7301 62.2441C76.6739 62.8057 78.8554 64.9871 79.4817 67.039C79.8705 68.2917 79.6545 70.9483 79.0713 72.093C78.337 73.5184 76.9979 74.8575 75.6156 75.5271C74.5789 76.0454 74.1469 76.1318 72.5703 76.1318C71.1016 76.1318 70.54 76.0238 69.7409 75.6351C68.0994 74.8359 67.0411 73.756 66.2204 72.093C65.5724 70.8187 65.4428 70.3435 65.4428 69.1988C65.4428 67.1686 66.1124 65.6135 67.5811 64.1448C69.7193 62.0282 71.9223 61.445 74.7301 62.2441ZM129.87 62.3521C131.166 62.7625 133.089 64.4904 133.866 65.9591C134.363 66.9094 134.449 67.3197 134.449 69.0044C134.449 71.337 133.974 72.5249 132.354 74.1448C130.842 75.6567 129.676 76.1318 127.43 76.1318C125.184 76.1318 123.996 75.6351 122.333 73.972C120.821 72.4601 120.216 70.8835 120.346 68.6804C120.475 66.6502 121.123 65.2895 122.657 63.864C124.73 61.9202 126.998 61.445 129.87 62.3521ZM113.153 110.236C113.348 110.473 113.283 110.862 112.829 112.007C112.505 112.827 112.16 113.626 112.03 113.756C111.879 113.972 109.201 114.037 100 114.037C90.7992 114.037 88.121 113.972 87.9698 113.756C87.8402 113.626 87.4947 112.827 87.1707 112.007C86.7171 110.862 86.6523 110.473 86.8467 110.236C87.2139 109.782 112.786 109.782 113.153 110.236Z" fill="black"/>
<path d="M90.0649 96.4342V99.5659H93.1967H96.3284V96.4342V93.3024H93.1967H90.0649V96.4342Z" fill="black"/>
<path d="M103.672 96.4342V99.5659H106.804H109.935V96.4342V93.3024H106.804H103.672V96.4342Z" fill="black"/>
<path d="M70.5613 66.6934C69.4166 67.8381 68.4663 68.9396 68.4663 69.1124C68.4663 69.5444 72.1596 73.2161 72.57 73.2161C72.7644 73.2161 73.8443 72.2657 75.0106 71.0994L77.1056 69.0044L74.881 66.7798L72.678 64.5768L70.5613 66.6934Z" fill="black"/>
<path d="M125.356 66.6286C124.298 67.7733 123.391 68.8748 123.369 69.0476C123.261 69.458 126.933 73.2161 127.43 73.2161C127.84 73.2161 131.533 69.5444 131.533 69.1124C131.533 68.9396 130.583 67.8165 129.417 66.6718L127.279 64.5336L125.356 66.6286Z" fill="black"/>
<path d="M0 141.92C0 142.05 2.33261 145.549 5.18359 149.695C8.03456 153.842 10.3672 157.32 10.3672 157.449C10.3672 157.579 8.03456 161.056 5.18359 165.203C2.33261 169.35 0 172.806 0 172.87C0 172.935 45.0108 173 100 173C155.011 173 200 172.935 200 172.87C200 172.806 197.667 169.35 194.816 165.203C191.965 161.035 189.633 157.557 189.633 157.428C189.633 157.32 191.965 153.842 194.816 149.695C197.667 145.549 200 142.05 200 141.92C200 141.747 172.484 141.683 100 141.683C27.5162 141.683 0 141.747 0 141.92ZM92.5486 145.441C93.1533 145.592 93.8877 145.851 94.1685 146.002C96.0691 146.996 97.5594 149.069 98.0346 151.359C98.3585 152.935 98.3369 153.086 97.7322 153.67C97.2786 154.145 97.0194 154.21 95.5076 154.21C94.1037 154.21 93.6933 154.123 93.2181 153.756C92.9158 153.518 92.6566 153.173 92.6566 153C92.6566 152.352 91.7711 150.948 91.2311 150.754C90.9287 150.624 90.1512 150.538 89.5032 150.538C88.5313 150.538 88.2289 150.624 87.797 151.056C87.149 151.704 86.9114 152.568 87.2138 153.238C87.473 153.799 88.8553 154.49 91.5983 155.462C94.3629 156.434 95.378 156.974 96.2419 157.924C97.4298 159.242 97.8834 160.473 97.905 162.395C97.9482 165.851 95.9827 168.767 93.0454 169.652C91.5551 170.084 88.1209 170.084 86.5875 169.631C83.6069 168.745 81.4255 165.7 81.4255 162.417C81.4255 160.883 81.879 160.581 84.1253 160.581C86.2203 160.581 86.7387 160.883 86.9546 162.222C87.1706 163.497 87.7754 164.296 88.7041 164.555C90.4104 165.03 91.5767 164.749 92.1166 163.734C92.4622 163.043 92.5486 162.05 92.2678 161.639C92.0518 161.294 90.5184 160.559 88.7041 159.911C85.0324 158.594 82.3974 156.585 81.879 154.728C80.9719 151.423 82.5486 147.514 85.378 146.067C87.1922 145.16 90.4536 144.879 92.5486 145.441ZM30.0216 145.916C30.2592 146.153 30.324 146.672 30.2808 148.119C30.1944 150.97 30.3456 150.883 25.162 150.775L20.9503 150.711V152.568V154.425H25.1188C29.1793 154.425 29.3089 154.447 29.7624 154.922C30.1944 155.376 30.216 155.57 30.0864 157.298C30 158.572 29.8488 159.263 29.6328 159.458C29.3952 159.631 28.0562 159.739 25.1188 159.803L20.9503 159.868V162.114V164.361H25.2484H29.568L30.0216 164.944C30.4536 165.484 30.4968 165.743 30.4104 167.212C30.2592 169.933 30.7343 169.76 22.9158 169.76C17.1058 169.76 16.2419 169.717 15.7883 169.393L15.27 169.048L15.3996 157.73C15.5292 145.786 15.5076 145.959 16.5227 145.57C16.7603 145.484 19.8272 145.462 23.3261 145.505C28.4017 145.592 29.7624 145.678 30.0216 145.916ZM37.365 146.11C37.8402 146.564 38.0994 147.168 38.4449 148.68C39.2657 152.05 40.7991 157.708 40.9287 157.838C41.1231 158.032 41.1879 157.838 42.203 153.799C44.3197 145.397 44.3844 145.268 47.0194 145.397C49.0929 145.505 49.46 145.851 50.108 148.335C51.7927 154.793 52.527 157.6 52.635 157.881C52.7862 158.356 53.0238 157.687 54.0173 153.691C55.2484 148.724 55.8747 146.737 56.4579 146.067C56.933 145.505 57.0626 145.484 58.8337 145.484C60.4752 145.505 60.7775 145.57 61.1879 145.959C61.5983 146.391 61.6199 146.499 61.3823 147.341C61.0367 148.572 58.0562 159.739 56.9762 163.821C55.7451 168.529 55.6803 168.702 55.0108 169.199C54.514 169.566 54.0821 169.652 52.6998 169.652C50.0648 169.652 50.2376 169.955 47.9266 161.445C47.0842 158.356 46.9546 157.924 46.8035 158.119C46.6739 158.292 45.7235 161.726 44.8812 165.009C43.8013 169.263 43.5421 169.609 41.1879 169.717C39.6544 169.803 39.5464 169.782 38.8337 169.134C38.3801 168.745 37.9698 168.119 37.8402 167.665C37.7322 167.212 36.8898 164.123 36.0043 160.797C35.1188 157.471 34.0389 153.389 33.6069 151.726C33.1749 150.063 32.6998 148.205 32.527 147.622C32.0302 145.786 32.635 145.289 35.1836 145.441C36.5443 145.527 36.8683 145.635 37.365 146.11ZM78.2505 145.981C78.5961 146.261 78.6393 146.585 78.5745 148.205C78.4665 150.97 78.6609 150.883 73.5421 150.775L69.3305 150.711V152.568V154.425H73.4773C78.5529 154.425 78.4017 154.339 78.4017 156.909C78.4017 158.356 78.3153 158.788 77.9914 159.199C77.581 159.717 77.4946 159.717 73.3477 159.803L69.1145 159.868V162.114V164.361H73.4773C78.7905 164.361 78.6177 164.274 78.6177 166.844C78.6177 168.313 78.5313 168.724 78.1641 169.199L77.7322 169.76H71.1879C65.486 169.76 64.622 169.717 64.1685 169.393L63.6501 169.048L63.7797 157.73C63.8877 145.786 63.8661 145.959 64.9028 145.57C65.1404 145.484 68.1641 145.462 71.5983 145.505C76.9546 145.613 77.9266 145.678 78.2505 145.981ZM115.724 145.851C115.896 145.981 115.983 146.715 115.983 148.054C115.983 150.948 116.156 150.862 110.886 150.775L106.695 150.711V152.568V154.425H110.864C114.924 154.425 115.054 154.447 115.508 154.901C115.918 155.354 115.94 155.57 115.832 157.168C115.659 159.76 115.767 159.695 110.778 159.782L106.695 159.868V162.114V164.361H110.972C116.242 164.361 116.069 164.253 116.004 167.104C115.961 169.933 116.415 169.76 108.639 169.76C102.808 169.76 102.16 169.717 101.728 169.371L101.274 169.004L101.296 157.665C101.317 145.829 101.296 145.937 102.268 145.57C102.894 145.333 115.378 145.592 115.724 145.851ZM129.093 145.657C133.175 146.261 135.011 148.054 135.572 151.985C135.767 153.367 135.097 155.981 134.276 157.082C133.65 157.881 131.425 159.609 130.626 159.868C130.41 159.955 130.583 160.451 131.21 161.769C132.397 164.274 132.829 164.728 134.082 164.922C134.644 164.987 135.27 165.203 135.464 165.397C136.048 165.894 136.307 167.125 136.048 168.097C135.745 169.263 134.86 169.76 133.002 169.76C131.21 169.76 130.713 169.566 129.46 168.421C128.164 167.233 127.775 166.607 126.263 163.108C125.529 161.445 124.881 160.257 124.708 160.257C124.471 160.257 124.406 161.056 124.406 164.555V168.875L123.844 169.307C123.369 169.674 122.959 169.76 121.598 169.76C118.898 169.76 119.114 170.775 119.114 157.773C119.114 146.045 119.114 145.981 120.151 145.57C120.907 145.268 126.911 145.333 129.093 145.657ZM158.942 145.592C162.678 146.24 164.665 148.356 165.227 152.222C165.529 154.253 165.4 162.654 165.054 163.994C164.708 165.311 163.477 167.168 162.354 168.054C160.648 169.415 159.719 169.609 154.536 169.695C149.46 169.782 149.093 169.695 148.661 168.464C148.38 167.622 148.337 159.263 148.575 151.013C148.747 144.857 148.294 145.354 153.629 145.354C155.767 145.354 158.164 145.462 158.942 145.592ZM178.531 145.657C181.879 146.153 183.78 147.579 184.557 150.149C185.292 152.676 184.795 154.793 183.024 156.585L182.073 157.579L183.153 158.702C184.536 160.127 184.946 161.078 184.946 162.849C184.946 164.836 184.298 166.218 182.7 167.708C180.799 169.436 180.151 169.609 174.384 169.717L169.611 169.803L168.985 169.263L168.359 168.724V157.6C168.359 145.7 168.337 146.002 169.438 145.57C170.151 145.268 176.415 145.333 178.531 145.657Z" fill="black"/>
<path d="M124.406 152.805V155.073H126.674C128.812 155.073 128.985 155.03 129.482 154.533C130.151 153.885 130.194 152.676 129.59 151.682C129.093 150.84 128.143 150.538 125.983 150.538H124.406V152.805Z" fill="black"/>
<path d="M153.996 157.32V164.188L156.177 164.102C158.229 164.037 158.38 163.994 158.855 163.454C159.482 162.719 159.762 160.948 159.806 157.514C159.87 153.67 159.33 151.251 158.337 150.862C158.142 150.775 157.084 150.667 156.004 150.603L153.996 150.473V157.32Z" fill="black"/>
<path d="M173.866 152.805V155.073H176.004C178.596 155.073 179.028 154.836 179.201 153.345C179.395 151.358 178.251 150.538 175.335 150.538H173.866V152.805Z" fill="black"/>
<path d="M173.866 162.158C173.866 163.734 173.931 164.123 174.212 164.231C174.752 164.425 176.696 164.382 177.581 164.145C179.093 163.713 179.763 162.006 178.855 160.883C178.467 160.408 178.251 160.365 176.156 160.3L173.866 160.214V162.158Z" fill="black"/>
</svg>
