<?xml version="1.0" standalone="no"?>
<!DOCTYPE svg PUBLIC "-//W3C//DTD SVG 20010904//EN"
 "http://www.w3.org/TR/2001/REC-SVG-20010904/DTD/svg10.dtd">
<svg version="1.0" xmlns="http://www.w3.org/2000/svg"
 width="1080pt" height="1080pt" viewBox="0 0 1080 1080"
 preserveAspectRatio="xMidYMid meet">

<g transform="translate(0,1080) scale(0.100000,-0.100000)"
fill="currentColor" stroke="none">
<path d="M4333 9440 c-176 -32 -324 -141 -408 -302 -33 -63 -41 -70 -108 -105
-94 -49 -193 -148 -236 -234 -107 -218 -86 -472 53 -655 l36 -47 0 -111 c0
-144 -6 -151 -78 -85 -102 93 -218 162 -362 213 -115 42 -202 57 -362 63
l-148 6 0 -292 c0 -314 8 -387 55 -504 59 -144 186 -284 323 -356 122 -63 202
-81 387 -88 88 -3 166 -10 173 -16 8 -6 12 -42 12 -113 0 -102 -1 -105 -34
-151 -85 -120 -120 -227 -120 -368 1 -170 53 -307 164 -427 l57 -63 399 -1017
399 -1018 865 3 865 2 400 1016 400 1017 58 63 c64 70 126 187 148 279 19 79
17 232 -5 304 -22 73 -69 169 -107 217 -28 35 -29 41 -29 142 0 72 4 108 13
114 6 6 86 13 177 16 179 6 248 21 364 78 151 75 277 210 340 365 52 128 66
241 66 532 l0 265 -152 -6 c-169 -6 -254 -21 -378 -66 -137 -50 -296 -148
-374 -230 -46 -48 -56 -30 -56 104 0 111 0 113 31 151 72 91 116 212 125 344
16 232 -104 450 -304 554 -68 35 -74 41 -107 106 -66 130 -191 236 -333 280
-209 65 -425 13 -588 -142 l-73 -70 -63 64 c-104 105 -277 178 -420 178 -141
-1 -307 -72 -411 -176 l-67 -68 -59 59 c-141 141 -343 208 -528 175z m229
-309 c66 -34 105 -78 152 -173 57 -115 97 -143 205 -143 110 0 148 26 202 140
70 146 171 213 305 202 109 -8 212 -91 251 -200 10 -29 34 -67 55 -87 82 -81
230 -80 304 2 12 12 38 57 58 99 41 87 83 129 164 167 44 20 65 23 120 20 81
-5 132 -28 190 -86 51 -50 77 -105 87 -180 8 -60 13 -64 105 -82 103 -20 197
-105 231 -208 19 -59 7 -182 -24 -234 -52 -89 -125 -138 -241 -162 l-60 -12
-12 -68 c-21 -112 -84 -194 -183 -240 -64 -28 -160 -27 -224 3 -57 28 -141
117 -157 168 -41 127 -157 189 -277 149 -62 -21 -103 -63 -140 -146 -58 -129
-151 -195 -273 -195 -122 1 -215 68 -275 200 -39 86 -72 119 -139 141 -61 20
-124 13 -182 -21 -35 -21 -50 -40 -84 -110 -46 -92 -112 -164 -178 -192 -54
-23 -156 -22 -213 4 -92 41 -158 122 -179 218 -5 28 -12 60 -15 72 -4 17 -15
22 -54 28 -117 16 -232 103 -265 202 -18 53 -21 141 -6 195 27 97 127 188 228
208 92 18 98 22 105 75 17 120 93 219 202 262 49 20 162 11 217 -16z m-1462
-1275 c154 -48 301 -152 405 -286 50 -65 105 -172 130 -252 27 -84 21 -88
-130 -88 -141 0 -212 17 -295 70 -144 92 -209 238 -210 466 0 108 11 118 100
90z m4685 -146 l0 -156 -34 -69 c-46 -93 -129 -176 -218 -217 -64 -30 -76 -32
-213 -36 -171 -5 -179 -2 -160 70 30 110 101 233 191 332 106 116 322 239 409
233 l25 -2 0 -155z m-2798 43 c70 -70 146 -116 243 -149 68 -23 250 -26 325
-5 93 26 186 81 258 154 l69 68 57 -59 c176 -180 452 -233 670 -129 35 18 53
21 60 14 16 -16 15 -709 -1 -725 -7 -7 -26 -12 -43 -12 -47 0 -177 -35 -232
-63 -172 -88 -288 -240 -327 -430 -30 -143 -14 -264 54 -406 65 -136 210 -261
348 -302 23 -7 47 -18 52 -24 7 -9 -44 -151 -175 -486 -102 -261 -193 -482
-202 -491 -15 -17 -61 -18 -749 -18 -575 0 -735 3 -741 13 -4 6 -92 228 -196
491 -153 390 -186 482 -175 491 7 7 36 20 64 29 166 54 305 196 367 374 120
348 -75 712 -429 802 -43 11 -91 20 -107 20 -17 0 -39 7 -49 17 -17 15 -18 40
-18 363 0 278 3 350 13 359 10 8 27 5 66 -14 175 -85 404 -69 567 37 27 18 74
58 104 90 30 32 56 58 57 58 1 0 33 -30 70 -67z m-757 -1145 c90 -26 191 -127
220 -222 18 -58 8 -181 -19 -234 -34 -66 -96 -128 -160 -159 -48 -24 -68 -28
-141 -28 -68 0 -94 5 -131 23 -76 37 -125 87 -163 164 -30 59 -36 81 -36 134
0 94 31 166 99 234 99 98 201 125 331 88z m2553 -5 c60 -19 149 -99 185 -167
23 -44 27 -63 27 -141 0 -108 -22 -163 -97 -238 -70 -70 -124 -92 -228 -92
-104 0 -159 23 -236 100 -70 70 -98 143 -92 245 6 94 36 157 107 223 96 90
201 112 334 70z m-774 -2217 c9 -11 6 -29 -15 -82 -15 -38 -31 -75 -37 -81 -7
-10 -131 -13 -557 -13 -426 0 -550 3 -557 13 -6 6 -22 43 -37 81 -21 53 -24
71 -15 82 17 21 1201 21 1218 0z"/>
<path d="M4940 5025 l0 -145 145 0 145 0 0 145 0 145 -145 0 -145 0 0 -145z"/>
<path d="M5570 5025 l0 -145 145 0 145 0 0 145 0 145 -145 0 -145 0 0 -145z"/>
<path d="M4037 6402 c-53 -53 -97 -104 -97 -112 0 -20 171 -190 190 -190 9 0
59 44 113 98 l97 97 -103 103 -102 102 -98 -98z"/>
<path d="M6574 6405 c-49 -53 -91 -104 -92 -112 -5 -19 165 -193 188 -193 19
0 190 170 190 190 0 8 -44 60 -98 113 l-99 99 -89 -97z"/>
<path d="M770 2919 c0 -6 108 -168 240 -360 132 -192 240 -353 240 -359 0 -6
-108 -167 -240 -359 -132 -192 -240 -352 -240 -355 0 -3 2084 -6 4630 -6 2547
0 4630 3 4630 6 0 3 -108 163 -240 355 -132 193 -240 354 -240 360 0 5 108
166 240 358 132 192 240 354 240 360 0 8 -1274 11 -4630 11 -3356 0 -4630 -3
-4630 -11z m4285 -163 c28 -7 62 -19 75 -26 88 -46 157 -142 179 -248 15 -73
14 -80 -14 -107 -21 -22 -33 -25 -103 -25 -65 0 -84 4 -106 21 -14 11 -26 27
-26 35 0 30 -41 95 -66 104 -14 6 -50 10 -80 10 -45 0 -59 -4 -79 -24 -30 -30
-41 -70 -27 -101 12 -26 76 -58 203 -103 128 -45 175 -70 215 -114 55 -61 76
-118 77 -207 2 -160 -89 -295 -225 -336 -69 -20 -228 -20 -299 1 -138 41 -239
182 -239 334 0 71 21 85 125 85 97 0 121 -14 131 -76 10 -59 38 -96 81 -108
79 -22 133 -9 158 38 16 32 20 78 7 97 -10 16 -81 50 -165 80 -170 61 -292
154 -316 240 -42 153 31 334 162 401 84 42 235 55 332 29z m-2895 -22 c11 -11
14 -35 12 -102 -4 -132 3 -128 -237 -123 l-195 3 0 -86 0 -86 193 0 c188 0
194 -1 215 -23 20 -21 21 -30 15 -110 -4 -59 -11 -91 -21 -100 -11 -8 -73 -13
-209 -16 l-193 -3 0 -104 0 -104 199 0 200 0 21 -27 c20 -25 22 -37 18 -105
-7 -126 15 -118 -347 -118 -269 0 -309 2 -330 17 l-24 16 6 524 c6 553 5 545
52 563 11 4 153 5 315 3 235 -4 298 -8 310 -19z m340 -9 c22 -21 34 -49 50
-119 38 -156 109 -418 115 -424 9 -9 12 0 59 187 98 389 101 395 223 389 96
-5 113 -21 143 -136 78 -299 112 -429 117 -442 7 -22 18 9 64 194 57 230 86
322 113 353 22 26 28 27 110 27 76 -1 90 -4 109 -22 19 -20 20 -25 9 -64 -16
-57 -154 -574 -204 -763 -57 -218 -60 -226 -91 -249 -23 -17 -43 -21 -107 -21
-122 0 -114 -14 -221 380 -39 143 -45 163 -52 154 -6 -8 -50 -167 -89 -319
-50 -197 -62 -213 -171 -218 -71 -4 -76 -3 -109 27 -21 18 -40 47 -46 68 -5
21 -44 164 -85 318 -41 154 -91 343 -111 420 -20 77 -42 163 -50 190 -23 85 5
108 123 101 63 -4 78 -9 101 -31z m1893 6 c16 -13 18 -28 15 -103 -5 -128 4
-124 -233 -119 l-195 3 0 -86 0 -86 192 0 c235 0 228 4 228 -115 0 -67 -4 -87
-19 -106 -19 -24 -23 -24 -215 -28 l-196 -3 0 -104 0 -104 202 0 c246 0 238 4
238 -115 0 -68 -4 -87 -21 -109 l-20 -26 -303 0 c-264 0 -304 2 -325 17 l-24
16 6 524 c5 553 4 545 52 563 11 4 151 5 310 3 248 -5 293 -8 308 -22z m1735
6 c8 -6 12 -40 12 -102 0 -134 8 -130 -236 -126 l-194 3 0 -86 0 -86 193 0
c188 0 194 -1 215 -22 19 -21 20 -31 15 -105 -8 -120 -3 -117 -234 -121 l-189
-4 0 -104 0 -104 198 0 c244 0 236 5 233 -127 -2 -131 19 -123 -341 -123 -270
0 -300 2 -320 18 l-21 17 1 525 c1 548 0 543 45 560 29 11 607 -1 623 -13z
m619 9 c189 -28 274 -111 300 -293 9 -64 -22 -185 -60 -236 -29 -37 -132 -117
-169 -129 -10 -4 -2 -27 27 -88 55 -116 75 -137 133 -146 26 -3 55 -13 64 -22
27 -23 39 -80 27 -125 -14 -54 -55 -77 -141 -77 -83 0 -106 9 -164 62 -60 55
-78 84 -148 246 -34 77 -64 132 -72 132 -11 0 -14 -37 -14 -199 l0 -200 -26
-20 c-22 -17 -41 -21 -104 -21 -125 0 -115 -47 -115 555 0 543 0 546 48 565
35 14 313 11 414 -4z m1382 3 c173 -30 265 -128 291 -307 14 -94 8 -483 -8
-545 -16 -61 -73 -147 -125 -188 -79 -63 -122 -72 -362 -76 -235 -4 -252 0
-272 57 -13 39 -15 426 -4 808 8 285 -13 262 234 262 99 0 210 -5 246 -11z
m907 -3 c155 -23 243 -89 279 -208 34 -117 11 -215 -71 -298 l-44 -46 50 -52
c64 -66 83 -110 83 -192 0 -92 -30 -156 -104 -225 -88 -80 -118 -88 -385 -93
l-221 -4 -29 25 -29 25 0 515 c0 551 -1 537 50 557 33 14 323 11 421 -4z"/>
<path d="M6530 2415 l0 -105 105 0 c99 0 107 2 130 25 31 30 33 86 5 132 -23
39 -67 53 -167 53 l-73 0 0 -105z"/>
<path d="M7900 2206 l0 -318 101 4 c95 3 102 5 124 30 29 34 42 116 44 275 3
178 -22 290 -68 308 -9 4 -58 9 -108 12 l-93 6 0 -317z"/>
<path d="M8820 2415 l0 -105 99 0 c120 0 140 11 148 80 9 92 -44 130 -179 130
l-68 0 0 -105z"/>
<path d="M8820 1982 c0 -73 3 -91 16 -96 25 -9 115 -7 156 4 70 20 101 99 59
151 -18 22 -28 24 -125 27 l-106 4 0 -90z"/>
</g>
</svg>
