    <svg
      width="117"
      height="123"
      viewBox="0 0 117 123"
      fill="none"
      xmlns="http://www.w3.org/2000/svg"
    >
      <path
        d="M34.9547 0.216031C31.1534 0.907175 27.9569 3.26139 26.1426 6.73871C25.4299 8.0994 25.2571 8.25059 23.81 9.00653C21.7798 10.0648 19.6415 12.2031 18.7128 14.0605C16.4018 18.7689 16.8554 24.2549 19.8575 28.2074L20.6351 29.2225V31.6199C20.6351 34.7301 20.5055 34.8813 18.9504 33.4558C16.7474 31.4471 14.242 29.9568 11.1318 28.8553C8.64802 27.9482 6.76897 27.6242 3.31324 27.4946L0.116699 27.3651V33.6718C0.116699 40.4536 0.289485 42.0303 1.3046 44.5573C2.5789 47.6674 5.32188 50.6912 8.28085 52.2463C10.9158 53.607 12.6437 53.9957 16.6394 54.1469C18.54 54.2117 20.2247 54.3629 20.3759 54.4925C20.5487 54.6221 20.6351 55.3996 20.6351 56.9331C20.6351 59.1361 20.6135 59.2009 19.9007 60.1944C18.0649 62.7862 17.3089 65.0972 17.3089 68.1426C17.3305 71.8143 18.4536 74.7733 20.851 77.3651L22.0821 78.7257L30.6998 100.691L39.3176 122.678L58.0001 122.613L76.6826 122.57L85.3219 100.626L93.9612 78.6609L95.2139 77.3003C96.5962 75.7884 97.9353 73.2614 98.4104 71.2743C98.8208 69.5681 98.7776 66.2635 98.3024 64.7085C97.8273 63.1318 96.8122 61.0584 95.9914 60.0216C95.3867 59.2657 95.3651 59.1361 95.3651 56.9547C95.3651 55.3996 95.4515 54.6221 95.6458 54.4925C95.7754 54.3629 97.5033 54.2117 99.4687 54.1469C103.335 54.0173 104.825 53.6933 107.331 52.4622C110.592 50.8424 113.313 47.9266 114.674 44.5789C115.797 41.8143 116.099 39.3737 116.099 33.0886V27.3651L112.816 27.4946C109.166 27.6242 107.331 27.9482 104.652 28.9201C101.693 30 98.2592 32.1167 96.5746 33.8877C95.5811 34.9245 95.3651 34.5357 95.3651 31.6415C95.3651 29.2441 95.3651 29.2009 96.0346 28.3802C97.5897 26.4147 98.54 23.8013 98.7344 20.9504C99.08 15.9396 96.4882 11.2311 92.1685 8.98493C90.6998 8.22899 90.5703 8.0994 89.8575 6.69551C88.432 3.88774 85.7322 1.59832 82.6653 0.647996C78.1512 -0.755891 73.486 0.367219 69.9655 3.71495L68.3888 5.22683L67.0281 3.84454C64.7819 1.57672 61.0454 4.81308e-05 57.9569 4.81308e-05C54.9115 0.0216464 51.3262 1.55512 49.08 3.80134L47.6329 5.27003L46.3586 3.99573C43.3132 0.950372 38.9504 -0.496712 34.9547 0.216031ZM39.9007 6.8899C41.3262 7.62424 42.1685 8.57456 43.1836 10.6264C44.4148 13.1102 45.2787 13.7149 47.6113 13.7149C49.9871 13.7149 50.8078 13.1534 51.9741 10.6912C53.486 7.53784 55.6675 6.09076 58.5616 6.32834C60.9158 6.50113 63.1405 8.29378 63.9828 10.648C64.1988 11.2743 64.7171 12.0951 65.1707 12.527C66.9417 14.2765 70.1383 14.2549 71.7366 12.4838C71.9957 12.2247 72.5573 11.2527 72.9893 10.3456C73.8748 8.46657 74.7819 7.55944 76.5314 6.73871C77.4817 6.30674 77.9353 6.24195 79.1232 6.30674C80.8726 6.41473 81.9741 6.91149 83.2268 8.16419C84.3284 9.24411 84.8899 10.432 85.1059 12.0519C85.2787 13.3478 85.3867 13.4342 87.3737 13.8229C89.5983 14.2549 91.6286 16.0908 92.3629 18.3154C92.7733 19.5897 92.5141 22.2463 91.8446 23.3694C90.7214 25.2916 89.1448 26.3499 86.6394 26.8683L85.3435 27.1275L85.0843 28.5962C84.6307 31.0152 83.27 32.7862 81.1318 33.7797C79.7495 34.3845 77.6761 34.3629 76.2938 33.7149C75.0627 33.1102 73.2484 31.188 72.9029 30.0864C72.0173 27.3435 69.5119 26.0044 66.9201 26.8683C65.5811 27.3219 64.6955 28.229 63.8964 30.0216C62.6437 32.8078 60.6351 34.2333 58.0001 34.2333C55.3651 34.2117 53.3564 32.7646 52.0605 29.9137C51.2182 28.0562 50.5055 27.3435 49.0584 26.8683C47.7409 26.4363 46.3802 26.5875 45.1275 27.3219C44.3716 27.7754 44.0476 28.1858 43.3132 29.6977C42.3197 31.6847 40.8942 33.2398 39.4687 33.8445C38.3024 34.3413 36.0994 34.3197 34.8683 33.7581C32.8813 32.8726 31.4558 31.1232 31.0022 29.0497C30.8942 28.445 30.743 27.7538 30.6783 27.4946C30.5919 27.1275 30.3543 27.0195 29.5119 26.8899C26.9849 26.5443 24.5011 24.6653 23.7884 22.527C23.3996 21.3823 23.3348 19.4817 23.6588 18.3154C24.242 16.2203 26.4018 14.2549 28.5832 13.8229C30.5703 13.4342 30.6998 13.3478 30.851 12.2031C31.2182 9.61128 32.8597 7.47305 35.2139 6.54432C36.2722 6.11236 38.7128 6.30674 39.9007 6.8899ZM8.32404 34.4277C11.6502 35.4644 14.8251 37.7106 17.0713 40.6048C18.1513 42.0087 19.3392 44.3197 19.8791 46.0476C20.4623 47.8618 20.3327 47.9482 17.0713 47.9482C14.026 47.9482 12.4925 47.581 10.6999 46.4363C7.5897 44.4493 6.18581 41.2959 6.16421 36.3715C6.16421 34.0389 6.4018 33.8229 8.32404 34.4277ZM109.512 37.581V40.9504L108.778 42.4406C107.784 44.4493 105.991 46.2419 104.069 47.1275C102.687 47.7754 102.428 47.8186 99.4687 47.905C95.7754 48.013 95.6027 47.9482 96.013 46.3931C96.661 44.0173 98.1944 41.3607 100.138 39.2225C102.428 36.7171 107.093 34.0605 108.972 34.1901L109.512 34.2333V37.581ZM49.08 36.6523C50.5919 38.1642 52.2333 39.1577 54.3284 39.8705C55.797 40.3672 59.7279 40.432 61.3478 39.9784C63.3564 39.4169 65.3651 38.229 66.9201 36.6523L68.4104 35.1836L69.6415 36.4579C73.4428 40.3456 79.4039 41.4903 84.1124 39.2441C84.8683 38.8553 85.2571 38.7905 85.4083 38.9417C85.7538 39.2873 85.7322 54.2549 85.3867 54.6005C85.2355 54.7517 84.8251 54.8597 84.4579 54.8597C83.4428 54.8597 80.6351 55.6156 79.4471 56.2203C75.7322 58.121 73.2268 61.4039 72.3845 65.5076C71.7366 68.5962 72.0821 71.2095 73.5508 74.2765C74.9547 77.2139 78.0865 79.9136 81.067 80.7992C81.5638 80.9504 82.0821 81.1879 82.1901 81.3175C82.3413 81.5119 81.2398 84.5789 78.4104 91.8143C76.2074 97.4514 74.242 102.225 74.0476 102.419C73.7236 102.786 72.7301 102.808 57.8705 102.808C45.4515 102.808 41.9957 102.743 41.8662 102.527C41.7798 102.397 39.8791 97.6026 37.6329 91.9223C34.3284 83.499 33.6156 81.5119 33.8532 81.3175C34.0044 81.1663 34.6307 80.8856 35.2355 80.6912C38.8208 79.5249 41.823 76.4579 43.1621 72.6134C45.7538 65.0972 41.5422 57.2355 33.8964 55.2916C32.9677 55.054 31.931 54.8597 31.5854 54.8597C31.2182 54.8597 30.743 54.7085 30.5271 54.4925C30.1599 54.1685 30.1383 53.6286 30.1383 46.6523C30.1383 40.648 30.2031 39.0929 30.4191 38.8985C30.6351 38.7257 31.0022 38.7905 31.8446 39.2009C35.6243 41.0368 40.5703 40.6912 44.0908 38.4018C44.6739 38.013 45.689 37.1491 46.337 36.4579C46.9849 35.7668 47.5465 35.2052 47.5681 35.2052C47.5897 35.2052 48.2808 35.8532 49.08 36.6523ZM32.7301 61.3823C34.6739 61.9439 36.8554 64.1253 37.4817 66.1771C37.8705 67.4298 37.6545 70.0864 37.0713 71.2311C36.337 72.6566 34.9979 73.9957 33.6156 74.6653C32.5789 75.1836 32.1469 75.27 30.5703 75.27C29.1016 75.27 28.54 75.162 27.7409 74.7733C26.0994 73.9741 25.0411 72.8942 24.2204 71.2311C23.5724 69.9568 23.4428 69.4817 23.4428 68.337C23.4428 66.3067 24.1124 64.7517 25.5811 63.283C27.7193 61.1663 29.9223 60.5832 32.7301 61.3823ZM87.8705 61.4903C89.1664 61.9007 91.0886 63.6286 91.8662 65.0972C92.3629 66.0476 92.4493 66.4579 92.4493 68.1426C92.4493 70.4752 91.9741 71.6631 90.3543 73.283C88.8424 74.7949 87.6761 75.27 85.4299 75.27C83.1836 75.27 81.9957 74.7733 80.3327 73.1102C78.8208 71.5983 78.216 70.0216 78.3456 67.8186C78.4752 65.7884 79.1232 64.4277 80.6566 63.0022C82.7301 61.0584 84.9979 60.5832 87.8705 61.4903ZM71.1534 109.374C71.3478 109.611 71.283 110 70.8294 111.145C70.5055 111.965 70.1599 112.765 70.0303 112.894C69.8791 113.11 67.2009 113.175 58.0001 113.175C48.7992 113.175 46.121 113.11 45.9698 112.894C45.8402 112.765 45.4947 111.965 45.1707 111.145C44.7171 110 44.6523 109.611 44.8467 109.374C45.2139 108.92 70.7862 108.92 71.1534 109.374Z"
        fill="currentColor"
      />
      <path
        d="M48.0649 95.5724V98.7041H51.1967H54.3284V95.5724V92.4406H51.1967H48.0649V95.5724Z"
        fill="currentColor"
      />
      <path
        d="M61.6719 95.5724V98.7041H64.8036H67.9354V95.5724V92.4406H64.8036H61.6719V95.5724Z"
        fill="currentColor"
      />
      <path
        d="M28.5613 65.8316C27.4166 66.9763 26.4663 68.0778 26.4663 68.2506C26.4663 68.6825 30.1596 72.3542 30.57 72.3542C30.7644 72.3542 31.8443 71.4039 33.0106 70.2376L35.1056 68.1426L32.881 65.918L30.678 63.7149L28.5613 65.8316Z"
        fill="currentColor"
      />
      <path
        d="M83.3563 65.7668C82.298 66.9115 81.3909 68.013 81.3693 68.1858C81.2613 68.5961 84.933 72.3542 85.4298 72.3542C85.8401 72.3542 89.5334 68.6825 89.5334 68.2506C89.5334 68.0778 88.5831 66.9547 87.4168 65.81L85.2786 63.6717L83.3563 65.7668Z"
        fill="currentColor"
      />
    </svg>